<svg xmlns="http://www.w3.org/2000/svg" width="430" height="430" style="width:100%;height:100%;transform:translate3d(0,0,0);content-visibility:visible" viewBox="0 0 430 430"><defs><clipPath id="a"><path d="M0 0h430v430H0z"/></clipPath><clipPath id="c"><path d="M0 0h430v430H0z"/></clipPath><clipPath id="b"><path d="M0 0h430v430H0z"/></clipPath></defs><g clip-path="url(#a)"><g clip-path="url(#b)" style="display:block"><path fill="#4BB3FD" d="m114.696 187.771-32.83 48.086s166.386-.852 249.011-3.858c.48-.018 3.997-4.358 4.477-4.376.048-.446-1.988-5.658-2.123-6.115-3.383-11.432-9.438-22.515-17.011-32.236-64.838-10.192-200.447-6.241-201.524-1.501" class="tertiary"/><path fill="#3A3347" d="M238.028 118.462h-86.876a3.5 3.5 0 1 0 0 7h18.091l.096 37.936a3.5 3.5 0 1 0 7 0v-.001h36.692v.001a3.5 3.5 0 1 0 7 0l-.095-37.936h18.092a3.5 3.5 0 1 0 0-7" class="primary"/><path fill="none" stroke="#3A3347" stroke-linecap="round" stroke-linejoin="round" stroke-width="7" d="M144.267 231.627v-42.356m92.809 37.855v-37.854" class="primary"/><path fill="#EBE6EF" d="M292.467 308.038H46.236l-18.042-37.504 18.042-34.212 355.57-17.058-37.073 54.156c-14.633 21.375-42.277 34.618-72.266 34.618" class="secondary"/><path fill="#EBE6EF" d="m24.051-36.606-31.219 1.498L-25.21-.896l18.042 37.502H25.21L7.168-2.891z" class="secondary" opacity=".5" style="mix-blend-mode:multiply" transform="translate(53.404 271.432)"/><path fill="none" stroke="#3A3347" stroke-linecap="round" stroke-linejoin="round" stroke-width="7" d="M28.194 270.535H295.06" class="primary"/><path fill="#3A3347" d="M27.894-22.093h-52.288a3.5 3.5 0 1 0 0 7h18.091l.095 37.936a3.5 3.5 0 1 0 7 0v-.001H27.99z" class="primary" opacity=".5" style="mix-blend-mode:multiply" transform="translate(175.547 140.555)"/><path fill="#EBE6EF" d="M315.41 189.272h.891c-14.418-17.646-33.925-30.124-50.741-30.124H99.642c-14.158 0-25.873 14.447-25.873 30.124z" class="secondary"/><path fill="#EBE6EF" d="M4.544 15.002c0-15.115 10.893-29.084 24.364-30.064H-3.035c-14.158 0-25.873 14.448-25.873 30.124z" class="secondary" opacity=".5" style="mix-blend-mode:multiply" transform="translate(102.677 174.21)"/></g><g clip-path="url(#c)" style="display:none"><g style="display:none"><path class="tertiary"/><path class="primary"/><path class="primary" style="mix-blend-mode:multiply"/></g><g fill="none" style="display:none"><path class="primary"/><path class="primary"/></g><g style="display:none"><path class="secondary"/><path class="secondary" style="mix-blend-mode:multiply"/><path class="secondary"/><path class="secondary" style="mix-blend-mode:multiply"/></g><path fill="none" class="primary" style="display:none"/></g></g></svg>